<?xml version="1.0" encoding="UTF-8"?>
<svg width="118px" height="90px" viewBox="0 0 118 90" version="1.1" xmlns="http://www.w3.org/2000/svg" xmlns:xlink="http://www.w3.org/1999/xlink">
    <!-- Generator: Sketch 63.1 (92452) - https://sketch.com -->
    <title>编组</title>
    <desc>Created with Sketch.</desc>
    <defs>
        <polygon id="path-1" points="0.104038717 0.079 22.9845389 0.079 22.9845389 25.537 0.104038717 25.537"></polygon>
        <polygon id="path-3" points="0 0.330775862 15.9435255 0.330775862 15.9435255 14.7711207 0 14.7711207"></polygon>
    </defs>
    <g id="页面-1" stroke="none" stroke-width="1" fill="none" fill-rule="evenodd">
        <g id="编组" transform="translate(0.000000, 17.000000)">
            <path d="M43.8985806,7.37282287 C43.6120459,8.75776461 42.9560321,9.80218018 41.8928375,10.5639235 C40.8381886,11.3200844 39.2044379,11.7037473 37.0383358,11.7037473 L30.5701912,11.7037473 L32.3120208,3.28853883 L38.7887112,3.28853883 C40.3204153,3.28853883 41.3640049,3.35958751 41.8918321,3.49965491 C42.6971455,3.72295075 43.2692096,4.16801997 43.6427101,4.85972961 C44.0152053,5.5483943 44.1011657,6.39387357 43.8985806,7.37282287 M46.078758,1.42401851 C45.3131573,0.842434331 44.2901781,0.44354675 43.0384737,0.238520564 C42.1522268,0.0801835086 40.8306482,0 39.1074182,0 L29.1742141,0 L24,25 L27.8184524,25 L29.8900482,14.9922861 L36.3843329,14.9922861 C40.0791229,14.9922861 42.8298563,14.2457675 44.5601239,12.7725224 C46.2883808,11.3013073 47.3877694,9.47687873 47.8276253,7.35100077 C48.0860093,6.10511144 48.0538369,4.94295806 47.731611,3.89600503 C47.4073744,2.8439771 46.8513964,2.01220007 46.078758,1.42401851" id="Fill-1" fill="#003856"></path>
            <path d="M70.3244637,3.29237108 L71,0.00456639539 L55.6821886,0.00456639539 C55.6372859,0.00456639539 55.5928821,0.00202950906 55.5484783,0 L52.1433561,0 L47,25 L50.5363379,25 C50.5393314,25 50.5428239,24.9989852 50.5458174,24.9989852 L65.8646266,24.9989852 L66.540163,21.7106732 L51.4718111,21.7106732 L53.1122568,13.7174517 L68.1826044,13.7174517 L68.8546483,10.4463905 L53.7847996,10.4463905 L55.2601031,3.29237108 L70.3244637,3.29237108 Z" id="Fill-3" fill="#003856"></path>
            <polygon id="Fill-5" fill="#003856" points="107.284602 31 103.619487 48.5261865 94.8097012 31 92.2279692 31 87 56 90.7153983 56 94.3129603 38.7991149 102.949039 56 105.771523 56 111 31"></polygon>
            <g transform="translate(2.000000, 0.000000)">
                <mask id="mask-2" fill="white">
                    <use xlink:href="#path-1"></use>
                </mask>
                <g id="Clip-8"></g>
                <path d="M4.05142444,24.5615 C5.54540222,25.209 7.51982444,25.537 9.92051333,25.537 C11.8182689,25.537 13.6194244,25.213 15.2744022,24.5725 C16.9344911,23.9305 18.3144911,23.0175 19.37658,21.8595 C20.4417356,20.698 21.12458,19.4415 21.4056911,18.124 C21.6914022,16.786 21.5646467,15.584 21.0290022,14.551 L21.0290022,14.5505 C20.4933578,13.519 19.4972022,12.658 18.0681356,11.991 C17.0847578,11.54 15.2713356,11.0295 12.5251356,10.4315 C9.86735778,9.853 8.25480222,9.2885 7.73040222,8.753 C7.21264667,8.236 7.04398,7.5885 7.21775778,6.7755 C7.42322444,5.8135 8.04933556,5.011 9.13084667,4.3225 C10.2098022,3.635 11.8024244,3.286 13.8647578,3.286 C15.8304911,3.286 17.2478022,3.6645 18.0763133,4.4105 C18.8450244,5.103 19.1844022,6.091 19.1138689,7.43 L19.1036467,7.629 L22.85878,7.629 L22.8843356,7.4695 C23.1158689,6.041 22.9456689,4.743 22.3788467,3.6095 C21.7982244,2.4485 20.7913356,1.558 19.3852689,0.963 C17.9986244,0.3765 16.2961133,0.079 14.3252689,0.079 C12.5379133,0.079 10.8292689,0.361 9.24584667,0.9175 C7.65475778,1.4775 6.34171333,2.31 5.34249111,3.392 C4.34173556,4.4775 3.69875778,5.662 3.43144667,6.913 C3.18560222,8.063 3.28475778,9.1185 3.72635778,10.0505 C4.16693556,10.9825 4.97755778,11.7705 6.13726889,12.3935 C7.03222444,12.8815 8.60695778,13.383 10.9529578,13.927 C13.2386467,14.457 14.7239356,14.8525 15.3689578,15.1025 C16.3421133,15.471 17.0060467,15.926 17.3403133,16.4555 C17.6740689,16.986 17.7614689,17.5925 17.6086467,18.311 C17.4568467,19.0225 17.0735133,19.69 16.4698911,20.2945 C15.8606467,20.9045 15.0137356,21.3925 13.9521578,21.7445 C12.8808689,22.1 11.6766911,22.28 10.3738689,22.28 C8.90953556,22.28 7.62715778,22.0435 6.56149111,21.5775 C5.51064667,21.117 4.78589111,20.512 4.40562444,19.778 C4.05500222,19.1015 3.90780222,18.2155 3.96811333,17.144 L3.97884667,16.9445 L0.27738,16.9445 L0.249268889,17.1 C-0.0568866667,18.76 0.121491111,20.269 0.779802222,21.5845 C1.43964667,22.905 2.54058,23.906 4.05142444,24.5615" id="Fill-7" fill="#003856" mask="url(#mask-2)"></path>
            </g>
            <polygon id="Fill-9" fill="#003856" points="118 0 112.416801 0 100.085754 10.0429041 102.215704 0.006592827 98.3024684 0.006592827 93 24.9888429 96.9132361 24.9888429 99.0555487 14.8967462 107.172539 25 112.64087 25 102.61903 12.5258642"></polygon>
            <path d="M83.4098231,4.42379522 L85.5838022,14.5076327 L77.3164083,14.5076327 L83.4098231,4.42379522 Z M86.1797871,17.5444562 L87.6697495,25 L92,25 L86.3629336,0 L82.3837981,0 L67,25 L71.1177601,25 L75.5360424,17.5444562 L86.1797871,17.5444562 Z" id="Fill-11" fill="#0098D8"></path>
            <polygon id="Fill-13" fill="#0098D8" points="77.1781442 31 72 56 75.8213527 56 81 31"></polygon>
            <polygon id="Fill-15" fill="#003856" points="3.68978068 39.042686 7.69608026 39.042686 7.14582361 41.6339941 3.51936538 41.6339941 3.29813346 42.6766801 6.92459169 42.6766801 6.2275315 45.957314 2.22174522 45.957314 2 47 11.1249183 47 11.3466636 45.957314 11.7177788 44.2093986 10.645497 44.2093986 10.2743817 45.957314 7.30443304 45.957314 8.00097993 42.6766801 11.6274382 42.6766801 11.8486701 41.6339941 8.22221185 41.6339941 8.7724685 39.042686 12.7787681 39.042686 13 38 3.9110126 38"></polygon>
            <g transform="translate(0.000000, 35.000000)">
                <mask id="mask-4" fill="white">
                    <use xlink:href="#path-3"></use>
                </mask>
                <g id="Clip-18"></g>
                <path d="M14.690529,2.07956897 L12.4541419,12.9814655 C12.3860129,13.3140517 12.0613677,13.584569 11.7300129,13.584569 L1.69543226,13.584569 C1.54730323,13.584569 1.41930323,13.5281897 1.33672258,13.4262931 C1.25052903,13.3207759 1.22059355,13.1775 1.25259355,13.0223276 L3.48898065,2.12043103 C3.55710968,1.78784483 3.88227097,1.51732759 4.21310968,1.51732759 L14.2476903,1.51732759 C14.3963355,1.51732759 14.5233032,1.57318966 14.6064,1.67560345 C14.6925935,1.78112069 14.722529,1.92491379 14.690529,2.07956897 M14.6523355,0.330775862 L4.25336774,0.330775862 C3.37904516,0.330775862 2.52485161,1.04094828 2.34523871,1.91715517 L2.2580129,2.3412931 L0.117109677,12.7766379 L0.0334967742,13.1847414 C-0.146632258,14.0609483 0.416980645,14.7711207 1.2907871,14.7711207 L11.690271,14.7711207 C12.5640774,14.7711207 13.4187871,14.0609483 13.5984,13.1847414 L13.6820129,12.7766379 L15.8229161,2.3412931 L15.9101419,1.91715517 C16.0897548,1.04094828 15.5266581,0.330775862 14.6523355,0.330775862" id="Fill-17" fill="#003856" mask="url(#mask-4)"></path>
            </g>
            <polygon id="Fill-19" fill="#003856" points="27.4302872 35 26.335248 35 26.0569191 36.1051397 20.2255875 36.1051397 20 37 32.7744125 37 33 36.1051397 27.1519582 36.1051397"></polygon>
            <path d="M19.9034596,43.5148411 C19.9587382,43.2471406 20.2218052,43.030033 20.4903014,43.030033 L28.5298853,43.030033 C28.798875,43.030033 28.9721142,43.2471406 28.9168356,43.5148411 L28.6132968,44.9849835 L19.5994272,44.9849835 L19.9034596,43.5148411 Z M28.0965404,47.4851589 C28.0412618,47.7528594 27.7786883,47.969967 27.5096986,47.969967 L19.4701147,47.969967 C19.201125,47.969967 19.0278858,47.7528594 19.0831644,47.4851589 L19.3837419,46.0302435 L28.3971179,46.0302435 L28.0965404,47.4851589 Z M28.8275014,42 L20.6186267,42 C19.8244902,42 19.0486153,42.6405165 18.8852472,43.430847 L18.8457625,43.6209389 L18.0698876,47.3790611 L18.0304029,47.569153 C17.8670348,48.3594835 18.378362,49 19.1724986,49 L27.3813733,49 C28.1755098,49 28.9513847,48.3594835 29.1147528,47.569153 L29.1542375,47.3790611 L29.9301124,43.6209389 L29.9695971,43.430847 C30.1329652,42.6405165 29.621638,42 28.8275014,42 L28.8275014,42 Z" id="Fill-21" fill="#003856"></path>
            <path d="M48.5558565,41.9030475 L45.4640016,41.9030475 C45.2394506,41.9030475 45.0952816,41.7200478 45.1414364,41.4941739 L45.9545911,37.5058261 C46.000746,37.2799522 46.2195925,37.0964296 46.4436249,37.0964296 L49.5359984,37.0964296 C49.7600308,37.0964296 49.9041998,37.2799522 49.858045,37.5058261 L49.0448903,41.4941739 C48.9987354,41.7200478 48.7798889,41.9030475 48.5558565,41.9030475 M49.8803445,36 L49.5256265,36 L46.546825,36 C45.7886412,36 45.047571,36.6195847 44.8919929,37.3840006 L44.8188712,37.7416343 L44.0985447,41.2740514 L44.0290532,41.6159994 C43.8729565,42.3804153 44.3614717,43 45.1196555,43 L48.0979384,43 L48.453175,43 C49.2113588,43 49.9519104,42.3804153 50.1080071,41.6159994 L50.9709468,37.3840006 C51.1270435,36.6195847 50.6385283,36 49.8803445,36" id="Fill-23" fill="#003856"></path>
            <path d="M36.5715981,45.4800193 L36.7635191,44.58883 L36.8074589,44.3866153 C36.8524088,44.1781416 37.0655422,44.0096293 37.283726,44.0096293 L46.5742174,44.0096293 C46.7924013,44.0096293 46.9328066,44.1781416 46.8878567,44.3866153 L46.8444219,44.58883 L46.6519959,45.4800193 L36.5715981,45.4800193 Z M36.1114928,47.6133847 L36.1554326,47.41117 L36.3539193,46.49013 L46.4343171,46.49013 L46.2358304,47.41117 L46.1918906,47.6133847 C46.1469406,47.821377 45.9338073,47.9898893 45.7156235,47.9898893 L36.4251321,47.9898893 C36.2069482,47.9898893 36.0665429,47.821377 36.1114928,47.6133847 L36.1114928,47.6133847 Z M46.9095741,43 L37.384232,43 C36.6458412,43 35.9241173,43.5705344 35.7726007,44.2744343 L35.7044183,44.58883 L35.0958267,47.41117 L35.0281493,47.7255657 C34.8766327,48.4294656 35.3518897,49 36.0902805,49 L45.6156225,49 C46.3540133,49 47.0757373,48.4294656 47.2272538,47.7255657 L47.2949312,47.41117 L47.9035228,44.58883 L47.9717053,44.2744343 C48.1237269,43.5705344 47.6479649,43 46.9095741,43 L46.9095741,43 Z" id="Fill-25" fill="#003856"></path>
            <path d="M62.3242605,40.6163588 C62.1740029,40.4316623 62.1264393,40.2094987 62.1810293,39.9488127 L62.6134254,37.8976253 L68,36.5467018 L67.9259522,35.4722955 L62.8566482,36.7419525 L63.2236444,35 L62.0896856,35 L61.047611,39.9488127 C60.9287021,40.5134565 61.0324771,40.9963061 61.3594767,41.3973615 C61.6859358,41.7994723 62.1383302,42 62.71666,42 L66.8017223,42 L67.0346757,40.892876 L62.9496134,40.892876 C62.6826088,40.892876 62.4739777,40.8010554 62.3242605,40.6163588" id="Fill-27" fill="#003856"></path>
            <path d="M58.3930596,42.0738171 C58.6475696,42.0738171 58.8119072,42.2718949 58.759618,42.5160373 L58.7222685,42.6895473 L58.4821648,43.8109645 L53.4458563,43.8109645 L53.68596,42.6895473 L53.7233095,42.5160373 C53.7755987,42.2718949 54.0242395,42.0738171 54.279283,42.0738171 L58.3930596,42.0738171 Z M52.7858379,46.8896156 L53.2153568,44.8842698 L58.2516652,44.8842698 L57.8221464,46.8896156 L52.7858379,46.8896156 Z M59.0994981,41 L54.0327765,41 C53.4229131,41 52.8269224,41.4744654 52.7015349,42.0594859 L52.5665432,42.6895473 L51,50 L52.1188832,50 L52.555872,47.9634327 L57.5921804,47.9634327 L57.1551917,50 L58.2746085,50 L59.8416853,42.6895473 L59.9766769,42.0594859 C60.1020644,41.4744654 59.7093615,41 59.0994981,41 L59.0994981,41 Z" id="Fill-29" fill="#003856"></path>
            <path d="M60.5434868,46.3208443 L66,44.9693931 L65.9288233,43.8791557 L60.7904151,45.1646438 L61.2519685,43 L60.103834,43 L59.0482292,47.948285 C58.9277764,48.5129288 59.0328988,48.9957784 59.3641441,49.3973615 C59.6948419,49.7989446 60.1531101,50 60.7384014,50 L64.8765036,50 L65.1124817,48.892876 L60.974927,48.892876 C60.7044556,48.892876 60.4931156,48.8005277 60.3414546,48.6158311 C60.189246,48.4316623 60.1410649,48.208971 60.1963637,47.948285 L60.5434868,46.3208443 Z" id="Fill-31" fill="#003856"></path>
            <path d="M59.998332,38.572463 L59.9080827,36.8664364 L58.8371243,37.1649772 L58.9038085,38.4343322 C58.9143376,38.6354016 58.7418612,38.8314582 58.5548446,38.8314582 L54.5929002,38.8314582 L56.1261356,35.3091233 L55.1624736,35 L53,40 L58.7443681,40 C59.4157226,40 60.0364373,39.2937507 59.998332,38.572463" id="Fill-33" fill="#003856"></path>
            <polygon id="Fill-35" fill="#003856" points="29.4360025 38 28.3514551 38 27.9080374 39.9897271 27.8318739 39.9897271 22.408615 39.9897271 22.2573313 39.9897271 22.7002273 38 21.6156798 38 21.1727838 39.9897271 18.2248388 39.9897271 18 41 31.7746395 41 32 39.9897271 28.9925849 39.9897271"></polygon>
            <path d="M35,41.9483218 L35.1465116,43 C37.1429338,42.3649441 38.6064401,41.4278103 39.5359571,40.1896644 L42.1667263,42.8359084 L43.068873,41.9978689 L40.9355993,39.8284497 L43.4354204,39.8284497 L43.6667263,38.7107086 L40.3388193,38.7107086 C40.4305903,38.4805541 40.5094812,38.2067128 40.5754919,37.8886521 L40.7220036,37.1822056 L43.7681574,37.1822056 L44,36.0644646 L37.9109123,36.0644646 C37.7729875,36.0644646 37.6844365,35.9536494 37.7128801,35.8172616 L37.8824687,35 L36.7538462,35 L36.5332737,36.0644646 L36.5042934,36.204049 C36.3921288,36.7442728 36.742576,37.1822056 37.2867621,37.1822056 L39.5960644,37.1822056 L39.4500894,37.8886521 C39.3974955,38.1411827 39.3132379,38.415024 39.19678,38.7107086 L35.8694097,38.7107086 L35.6375671,39.8284497 L38.5017889,39.8284497 C37.7418605,40.7266915 36.5740608,41.4336708 35,41.9483218" id="Fill-37" fill="#003856"></path>
        </g>
    </g>
</svg>